#!OML:ASF F:\VICON\USERDATA\INSTALL\rory3\rory3.ASF
:FULLY-SPECIFIED
:DEGREES
67
root 0.055803571152762244 18.503042275621752 24.903654125517505 5.9990455951418 -3.1600856181499584 -2.07768503490339
lfemur 22.259554834545913 -6.257501374080096 -28.661064154308953
ltibia 26.848770025674234
lfoot 20.852111296159475 -9.924519205629132
ltoes 0.16218845164453377
rfemur -46.46721636126023 -2.746726369839778 23.694750784434184
rtibia 84.1309117968542
rfoot -9.48002133609097 -3.8832386881656675
rtoes -36.28504033380853
lowerback nan -1.3829685362385367 -2.453563059079402
upperback -2.188888885301939 -2.93047981678403 3.1227670710440742
thorax -8.384210619350677 -1.116056310291447 5.648098843359826
lowerneck -22.566613905330232 -2.207747582834484 -1.5675719372755879
upperneck 12.450772120563519 -2.9713454780469486 3.2723297482138505
head 7.52354094700681 -1.276829364289031 0.8998149062255554
lclavicle -2.0316063983025232e-14 4.4295511335622316e-14
lhumerus -31.35646969006068 -27.92085821306212 97.81406079511451
lradius 121.98732681515747
lwrist 34.306635789659154
lhand -21.731050900224236 2.526855149428483
lfingers nan
lthumb 4.754780183081617 32.7392222526591
rclavicle -2.0355011153629147e-14 4.3045451975742453e-14
rhumerus -66.8297440986177 -2.5790481053819825 -89.84616976599835
rradius 103.27713067681178
rwrist 0.4629854012648078
rhand -13.000586856737076 nan
rfingers nan
rthumb 12.752653029653683 9.1266782699149
68
root 0.0832847970013672 18.497019368663498 25.35546215890104 5.626828199157726 -3.1315004179322647 -1.7859296991745666
lfemur 21.215391195075984 -6.176650201237933 -28.964531539737237
ltibia 29.745169713606703
lfoot 19.21867938182042 -10.199576685069529
ltoes -5.379379456106214
rfemur -45.669117426049894 -3.1104142437318494 23.623084379104142
rtibia 82.20437990799469
rfoot -9.72164000324361 -4.24991879060792
rtoes -36.32819861930844
lowerback nan -1.310277301942564 -2.719720502487688
upperback -2.1130073354367322 -2.963723302403249 2.945898665081166
thorax -8.401061395996097 -1.0859091464159993 5.564847698296178
lowerneck -22.10781553669372 -2.3345173138011055 -1.8038239492915031
upperneck 11.95352324046814 -3.1780519216150616 3.389100571494078
head 7.371445463411838 -1.348467587896263 0.9581298956267739
lclavicle -1.4713574529555786e-14 7.195877969652984e-16
lhumerus -32.20297197315263 -27.82667041376854 98.26664528832687
lradius 120.66226820230622
lwrist 34.47721018185829
lhand -23.74884248455092 2.395227801850593
lfingers nan
lthumb 2.804692324885845 32.62161403847357
rclavicle -1.5606293594289582e-14 -1.0568159338832339e-15
rhumerus -66.3824364343946 -3.26146625776758 -89.63013254718385
rradius 103.50774184869827
rwrist 0.9840598938054246
rhand -13.081090046468969 nan
rfingers nan
rthumb 12.689641475697904 8.991754984603205
69
root 0.12407391338863799 18.48101621401338 25.99142729510774 5.187209342073821 -2.813575393088442 -1.5128191794846555
lfemur 20.037755087437926 -6.2799384230751 -29.098253293591213
ltibia 32.876500126326135
lfoot 18.2875026191106 -9.464131862037764
ltoes -4.293864501363486
rfemur -44.842966554595996 -3.6722636748874207 23.674515936148115
rtibia 81.07978197476736
rfoot -9.933957699663402 -4.549475858353034
rtoes -37.71777024677557
lowerback nan -1.281923207621697 -2.7288845732949913
upperback -1.9609494605010278 -3.0211397335708137 2.7326451800774585
thorax -8.572128017813265 -1.060208566715991 5.359392053168419
lowerneck -22.234047722339636 -2.438571682352616 -1.8554840785267723
upperneck 11.652325448596986 -3.429848126963237 3.4991179415577554
head 7.316675981884204 -1.4295032112642092 0.9925207274262171
lclavicle 1.1613271641969684e-15 -3.7760444119829206e-14
lhumerus -32.98943515220904 -27.66822808034238 98.64830119304233
lradius 119.3707269495329
lwrist 33.997781943870635
lhand -24.851775323773232 1.589575998737115
lfingers nan
lthumb 1.7386917903447674 31.815844132304814
rclavicle -3.6908068747074726e-17 -3.9791206773916734e-14
rhumerus -65.56256364615086 -3.9064857117912393 -89.54437963947085
rradius 103.54425758800991
rwrist 0.6928749153569651
rhand -12.934499355838568 nan
rfingers nan
rthumb 12.855835951938682 8.748901032025392
70
root 0.16983598279456535 18.477679540992128 26.76039965741583 5.040337720051391 -2.631579811351793 -1.4359952045743807
lfemur 18.375389362343025 -6.215182345269898 -28.93916846016929
ltibia 36.22494135580983
lfoot 16.33283568646036 -9.595656666682359
ltoes -9.859246961798057
rfemur -44.163033966304965 -4.007751593460486 23.882651098917155
rtibia 80.6469441987274
rfoot -9.99009904926616 -5.008235179798936
rtoes -37.43811318363412
lowerback nan -1.296265215487891 -2.649010030706067
upperback -1.6548509558480822 -3.040818805247918 2.6016444343445935
thorax -8.180965737303094 -1.060355927624074 5.160659255997015
lowerneck -22.584329250612907 -2.5259728056386432 -1.9887554012651736
upperneck 11.270848239951048 -3.655462833912568 3.6490521799332494
head 7.268660228140748 -1.4990696554429923 1.050559535753899
lclavicle 2.7626899665159007e-15 1.4741330766870596e-14
lhumerus -33.15735965951583 -27.402881246782997 98.74354194038439
lradius 117.6255607360133
lwrist 33.45960296903639
lhand -21.819921218840744 4.110232118113884
lfingers nan
lthumb 4.624852376459002 34.285557616609935
rclavicle 2.1424155928427903e-15 1.2765335763853706e-14
rhumerus -64.3662703106978 -4.316887832881918 -89.60744819004269
rradius 103.4430671222668
rwrist 0.24942594464065593
rhand -13.16990880637995 nan
rfingers nan
rthumb 12.653814889046696 8.9069752149898
71
root 0.20708600513120168 18.441868357477926 27.647405724271763 4.637287840071126 -2.9284654222212527 -1.5520529949157185
lfemur 16.696294003663667 -5.648320528702672 -28.59309508468811
ltibia 39.69714370745439
lfoot 13.448938218106857 -10.152690884166384
ltoes -22.137620830110453
rfemur -43.19458969634051 -4.083659417243276 24.356208872280718
rtibia 80.66995225060319
rfoot -9.940521998766592 -5.396331772734945
rtoes -36.35586729373463
lowerback nan -1.1569306891526954 -2.592241293462295
upperback -1.2679149321448224 -2.843443873382249 2.5946417909861297
thorax -7.850024587198084 -0.9426359759410812 4.994336979085902
lowerneck -22.554482568352785 -2.5659138270652924 -2.173333430808277
upperneck 10.938837238755415 -3.7664282877821664 3.756034117699924
head 7.184151547120761 -1.5321529721993965 1.1030140693873403
lclavicle -1.2774082164561052e-14 2.879136737528557e-14
lhumerus -33.83496963482357 -26.82014400477216 99.04274075755325
lradius 115.77097292698913
lwrist 33.17352666268331
lhand -22.48794745330124 2.0644812609708114
lfingers nan
lthumb 3.9928780634952608 32.273173809023774
rclavicle -1.3449861930405003e-14 2.6751901858698125e-14
rhumerus -63.19157700455014 -4.374952713339793 -89.6515651143475
rradius 103.23172311149993
rwrist -0.23025984590296567
rhand -13.275047873405263 nan
rfingers nan
rthumb 12.56698373891316 9.004170559967871
